<svg width="320" height="320" viewBox="0 0 320 320" fill="none" xmlns="http://www.w3.org/2000/svg">
<rect width="320" height="320" rx="30" fill="url(#paint0_linear_278_17)"/>
<path fill-rule="evenodd" clip-rule="evenodd" d="M183.932 145.126C184.412 144.647 184.793 144.078 185.053 143.451C185.313 142.825 185.447 142.153 185.447 141.475C185.447 140.797 185.313 140.125 185.053 139.499C184.793 138.873 184.412 138.304 183.932 137.825L152.994 106.887C152.515 106.408 151.946 106.027 151.319 105.768C150.693 105.509 150.022 105.375 149.344 105.375C148.666 105.375 147.994 105.509 147.368 105.768C146.742 106.027 146.173 106.408 145.693 106.887C145.214 107.367 144.833 107.936 144.574 108.562C144.315 109.188 144.181 109.86 144.181 110.538C144.181 111.216 144.315 111.887 144.574 112.513C144.833 113.14 145.214 113.709 145.693 114.188L167.834 136.319H77.1562C75.7887 136.319 74.4772 136.862 73.5102 137.829C72.5432 138.796 72 140.108 72 141.475C72 142.843 72.5432 144.154 73.5102 145.121C74.4772 146.088 75.7887 146.632 77.1562 146.632H167.834L145.693 168.762C145.214 169.242 144.833 169.811 144.574 170.437C144.315 171.063 144.181 171.735 144.181 172.413C144.181 173.091 144.315 173.762 144.574 174.388C144.833 175.015 145.214 175.584 145.693 176.063C146.173 176.543 146.742 176.923 147.368 177.183C147.994 177.442 148.666 177.576 149.344 177.576C150.022 177.576 150.693 177.442 151.319 177.183C151.946 176.923 152.515 176.543 152.994 176.063L183.932 145.126Z" fill="white"/>
<path fill-rule="evenodd" clip-rule="evenodd" d="M122.875 94.4688C122.875 93.1012 123.418 91.7897 124.385 90.8227C125.352 89.8557 126.664 89.3125 128.031 89.3125H210.531C211.899 89.3125 213.21 89.8557 214.177 90.8227C215.144 91.7897 215.688 93.1012 215.688 94.4688V187.281C215.688 188.649 215.144 189.96 214.177 190.927C213.21 191.894 211.899 192.438 210.531 192.438H128.031C126.664 192.438 125.352 191.894 124.385 190.927C123.418 189.96 122.875 188.649 122.875 187.281V166.656C122.875 165.289 122.332 163.977 121.365 163.01C120.398 162.043 119.086 161.5 117.719 161.5C116.351 161.5 115.04 162.043 114.073 163.01C113.106 163.977 112.562 165.289 112.562 166.656V187.281C112.562 191.384 114.192 195.318 117.093 198.219C119.994 201.12 123.929 202.75 128.031 202.75H210.531C214.634 202.75 218.568 201.12 221.469 198.219C224.37 195.318 226 191.384 226 187.281V94.4688C226 90.3662 224.37 86.4316 221.469 83.5307C218.568 80.6297 214.634 79 210.531 79H128.031C123.929 79 119.994 80.6297 117.093 83.5307C114.192 86.4316 112.562 90.3662 112.562 94.4688V115.094C112.562 116.461 113.106 117.773 114.073 118.74C115.04 119.707 116.351 120.25 117.719 120.25C119.086 120.25 120.398 119.707 121.365 118.74C122.332 117.773 122.875 116.461 122.875 115.094V94.4688Z" fill="white"/>
<defs>
<linearGradient id="paint0_linear_278_17" x1="0" y1="160" x2="320" y2="160" gradientUnits="userSpaceOnUse">
<stop offset="1" stop-color="#509F96" stop-opacity="0.933333"/>
</linearGradient>
</defs>
</svg>
